<?xml version="1.0" encoding="iso-8859-1"?>
<!-- Generator: Adobe Illustrator 19.0.0, SVG Export Plug-In . SVG Version: 6.00 Build 0)  -->
<svg version="1.1" id="Layer_1" xmlns="http://www.w3.org/2000/svg" xmlns:xlink="http://www.w3.org/1999/xlink" x="0px" y="0px"
	 viewBox="0 0 505 505" style="enable-background:new 0 0 505 505;" xml:space="preserve">
<circle style="fill:#FFD05B;" cx="252.5" cy="252.5" r="252.5"/>
<path style="fill:#FFFFFF;" d="M271.9,246.1c29.2,17.5,67.6,13.6,92.7-11.5c29.7-29.7,29.7-77.8,0-107.4s-77.8-29.7-107.4,0
	c-25.1,25.1-29,63.5-11.5,92.7L118.1,347.4l26.2,26.2l0,0l26.4,26.4l10.6-10.6l-10.1-10.1l9.7-9.7l10.1,10.1l10.6-10.6l-10.1-10
	l9.7-9.7l10.1,10.1l10.6-10.6l-26.4-26.3L271.9,246.1z"/>
<circle style="fill:#FFD05B;" cx="337.4" cy="154.4" r="17.7"/>
<g>
</g>
<g>
</g>
<g>
</g>
<g>
</g>
<g>
</g>
<g>
</g>
<g>
</g>
<g>
</g>
<g>
</g>
<g>
</g>
<g>
</g>
<g>
</g>
<g>
</g>
<g>
</g>
<g>
</g>
</svg>
