<svg id="Capa_1" enable-background="new 0 0 512 512" height="512" viewBox="0 0 512 512" width="512" xmlns="http://www.w3.org/2000/svg"><g><g><path d="m494.47 406.997h-476.94c-5.532 0-10.017-4.485-10.017-10.017v-234.526l5.009-14.368h486.957l5.009 14.368v234.526c-.001 5.532-4.486 10.017-10.018 10.017z" fill="#d3effb"/></g><g><path d="m499.479 148.086h-32.659v211.227c0 5.532-4.485 10.017-10.017 10.017h-449.29v27.65c0 5.532 4.485 10.017 10.017 10.017h476.94c5.532 0 10.017-4.485 10.017-10.017v-234.526z" fill="#b1e4f9"/></g><g><path d="m504.487 162.454h-496.974v-89.169c0-5.523 4.477-10 10-10h476.974c5.523 0 10 4.477 10 10z" fill="#5766cb"/></g><g><path d="m494.47 63.285h-27.65v99.169h37.667v-89.152c0-5.532-4.485-10.017-10.017-10.017z" fill="#3d4fc3"/></g><g><g><path d="m448.73 324.227h-30.051v-65.022c0-14.598-11.231-26.474-25.037-26.474h-32.738c-12.674 0-23.179 10.009-24.816 22.944-.255 2.011-1.943 3.53-3.971 3.53h-22.143c-2.343 0-4.173-2.002-3.999-4.339 2.166-29.149 25.975-52.187 54.929-52.187h32.738c30.376 0 55.088 25.357 55.088 56.525z" fill="#524798"/></g></g><g><g><path d="m393.641 202.679h-13.877c30.376 0 55.088 25.357 55.088 56.525v65.022h13.877v-65.022c.001-31.168-24.712-56.525-55.088-56.525z" fill="#453d81"/></g></g><g><path d="m454.498 448.715h-148.666c-8.284 0-15-6.716-15-15v-122.173c0-8.284 6.716-15 15-15h148.666c8.284 0 15 6.716 15 15v122.173c0 8.284-6.716 15-15 15z" fill="#5e54ac"/></g><g><path d="m454.472 296.542h-7.972v114.149c0 8.298-6.727 15.026-15.026 15.026h-140.642v7.972c0 8.298 6.727 15.026 15.026 15.026h148.615c8.299 0 15.026-6.727 15.026-15.026v-122.121c-.001-8.299-6.728-15.026-15.027-15.026z" fill="#524798"/></g><g><path d="m406.287 358.192c0-15.209-12.801-27.428-28.217-26.47-13.211.821-23.961 11.576-24.777 24.788-.581 9.407 3.748 17.833 10.665 22.975 1.024.761 1.641 1.95 1.641 3.226v19.361c0 2.766 2.242 5.009 5.009 5.009h18.312c2.766 0 5.009-2.242 5.009-5.009v-19.363c0-1.268.605-2.455 1.624-3.211 6.511-4.833 10.734-12.574 10.734-21.306z" fill="#524798"/></g><g><path d="m378.071 331.721c-1.637.102-3.235.357-4.782.749 11.513 2.893 20.039 13.31 20.039 25.721 0 8.732-4.223 16.473-10.735 21.305-1.018.756-1.624 1.943-1.624 3.211v19.363c0 2.766-2.242 5.009-5.009 5.009h12.96c2.766 0 5.009-2.242 5.009-5.009v-19.363c0-1.268.605-2.455 1.624-3.211 6.512-4.832 10.735-12.573 10.735-21.305-.001-15.208-12.802-27.427-28.217-26.47z" fill="#453d81"/></g><g><path d="m494.47 55.772h-476.94c-9.666 0-17.53 7.864-17.53 17.53v323.678c0 9.666 7.864 17.53 17.53 17.53h75.473c4.149 0 7.513-3.363 7.513-7.513s-3.364-7.513-7.513-7.513h-75.473c-1.381 0-2.504-1.123-2.504-2.504v-227.013h261.384c4.15 0 7.513-3.363 7.513-7.513s-3.363-7.513-7.513-7.513h-261.384v-81.64c0-1.381 1.124-2.504 2.504-2.504h476.94c1.381 0 2.504 1.123 2.504 2.504v81.64h-182.593c-4.15 0-7.513 3.363-7.513 7.513s3.363 7.513 7.513 7.513h182.593v227.013c0 1.381-1.123 2.504-2.504 2.504h-17.46v-87.917c0-11.831-9.166-21.556-20.768-22.462v-29.901c0-35.31-28.083-64.038-62.601-64.038h-32.738c-32.537 0-59.956 25.979-62.421 59.145-.237 3.199.877 6.38 3.057 8.728 2.171 2.337 5.245 3.678 8.434 3.678h22.142c5.784 0 10.696-4.342 11.424-10.099 1.182-9.335 8.647-16.375 17.364-16.375h32.738c9.663 0 17.524 8.506 17.524 18.961v29.824h-105.307c-12.427 0-22.539 10.111-22.539 22.539v87.917h-152.877c-4.149 0-7.513 3.363-7.513 7.513s3.364 7.513 7.513 7.513h152.877v19.179c0 12.427 10.111 22.539 22.539 22.539h148.614c12.427 0 22.539-10.111 22.539-22.539v-19.179h17.46c9.666 0 17.53-7.864 17.53-17.53v-323.678c-.001-9.666-7.865-17.53-17.531-17.53zm-100.829 169.446h-32.738c-15.271 0-28.433 11.183-31.75 26.474h-15.268c3.544-23.553 23.529-41.5 47.018-41.5h32.738c26.233 0 47.575 21.987 47.575 49.012v29.824h-15.026v-29.824c.001-18.739-14.601-33.986-32.549-33.986zm68.344 208.471c0 4.143-3.37 7.513-7.513 7.513h-148.614c-4.143 0-7.513-3.37-7.513-7.513v-122.121c0-4.143 3.37-7.513 7.513-7.513h148.614c4.143 0 7.513 3.37 7.513 7.513z"/><circle cx="55.532" cy="112.588" r="14.65"/><circle cx="100.084" cy="112.588" r="14.65"/><circle cx="144.636" cy="112.588" r="14.65"/><path d="m138.748 302.959c3.53 2.055 8.176.877 10.263-2.75 2.075-3.593.844-8.188-2.75-10.263l-30.779-17.771 30.779-17.771c3.594-2.075 4.825-6.67 2.75-10.263-2.075-3.594-6.67-4.823-10.263-2.75l-30.779 17.77v-35.541c0-4.15-3.364-7.513-7.513-7.513s-7.513 3.363-7.513 7.513v35.541l-30.779-17.77c-3.594-2.074-8.189-.845-10.263 2.75-2.075 3.593-.844 8.188 2.75 10.263l30.779 17.771-30.779 17.771c-3.594 2.075-4.825 6.67-2.75 10.263 2.087 3.627 6.733 4.805 10.263 2.75l30.779-17.77v35.541c0 4.15 3.364 7.513 7.513 7.513s7.513-3.363 7.513-7.513v-35.541z"/><path d="m170.881 300.209c2.087 3.627 6.733 4.805 10.263 2.75l30.78-17.771v35.541c0 4.15 3.364 7.513 7.513 7.513s7.513-3.363 7.513-7.513v-35.541l30.779 17.77c3.53 2.055 8.176.877 10.263-2.75 2.075-3.593.843-8.188-2.75-10.263l-30.779-17.771 30.779-17.771c3.593-2.075 4.825-6.67 2.75-10.263-2.076-3.594-6.671-4.823-10.263-2.75l-30.779 17.77v-35.541c0-4.15-3.364-7.513-7.513-7.513s-7.513 3.363-7.513 7.513v35.541l-30.78-17.771c-3.594-2.074-8.188-.845-10.263 2.75-2.075 3.593-.844 8.188 2.75 10.263l30.779 17.771-30.779 17.771c-3.594 2.078-4.825 6.672-2.75 10.265z"/><path d="m403.07 333.386c-6.916-6.499-15.965-9.758-25.464-9.163-17.08 1.06-30.755 14.742-31.809 31.823-.678 10.964 3.894 21.444 12.292 28.379v17.646c0 6.904 5.617 12.521 12.521 12.521h18.312c6.904 0 12.521-5.617 12.521-12.521v-17.648c7.769-6.435 12.358-16.111 12.358-26.231-.001-9.356-3.912-18.397-10.731-24.806zm-11.99 40.075c-2.921 2.164-4.664 5.621-4.664 9.247v16.859h-13.303v-16.857c0-3.618-1.746-7.079-4.672-9.256-5.189-3.856-8.048-10.017-7.649-16.481.579-9.372 8.374-17.171 17.744-17.753 5.324-.328 10.381 1.486 14.243 5.116 3.866 3.633 5.995 8.554 5.995 13.856 0 6.074-2.806 11.641-7.694 15.269z"/></g></g></svg>